<svg xmlns="http://www.w3.org/2000/svg" width="196" height="200" class="splash_logo__2IWZK undefined" preserveAspectRatio="xMidYMid slice" style="width:100%;height:100%;transform:translate3d(0,0,0)"><defs><clipPath id="a"><path d="M0 0h196v200H0z"/></clipPath><clipPath id="b"><path d="M0 0h196v200H0z"/></clipPath></defs><g clip-path="url(#a)"><g clip-path="url(#b)" style="display:block"><g style="display:block"><path fill="#D74782" d="M123.08 132.686v.173c0 9.218-7.829 16.625-17.046 16.625h-.435c-9.244.044-16.789-7.383-16.89-16.625v-22.173c.098-9.253 7.64-16.696 16.893-16.67h.437c9.218 0 17.045 7.453 17.045 16.67v.516h3.907v-.516c.218-11.362-8.816-20.749-20.179-20.967a22.129 22.129 0 0 0-.773-.002h-.437c-11.884 0-21.581 9.084-21.581 20.969v22.173c0 11.886 9.7 22.483 21.581 22.483h.437c11.886 0 20.952-10.599 20.952-22.483v-.173h-3.911z"/><path fill="#21ABB1" d="M106.674 132.686v.173c-.067 9.23-7.591 16.666-16.822 16.625h-.435c-9.205.033-16.694-7.402-16.727-16.608v-22.191c.02-9.221 7.506-16.682 16.727-16.67h.435c9.24-.02 16.759 7.431 16.822 16.67v.517h4.3v-.517c.141-11.44-9.018-20.829-20.458-20.97-.22-.003-.441-.002-.661.002h-.435c-11.886 0-21.805 9.083-21.805 20.968v22.174c0 11.886 9.92 22.483 21.805 22.483h.435c11.885 0 21.119-10.599 21.119-22.483v-.173h-4.3z"/><path fill="#21ABB1" d="M96.127 127.998h14.844v4.688H96.127v-4.688zM93.002 72.308c0-5.27-4.272-9.542-9.543-9.543h-.054c-5.271.001-9.543 4.273-9.543 9.543v.054c0 5.27 4.273 9.543 9.543 9.543h.054a9.543 9.543 0 0 0 9.543-9.543v-.054zm-4.687.028a4.492 4.492 0 1 1-8.984 0 4.492 4.492 0 0 1 8.984 0z"/><path fill="#D74782" d="M117.221 72.308c0-5.27-4.272-9.542-9.543-9.543h-.054c-5.27.001-9.543 4.273-9.543 9.543v.054c0 5.27 4.273 9.543 9.543 9.543h.054a9.543 9.543 0 0 0 9.543-9.543v-.054zm-5.078.028a4.492 4.492 0 1 1-8.983 0 4.492 4.492 0 1 1 8.983 0z"/><path fill="#21ABB1" d="M97.777 0 20.736 33.444v115.649h37.5v-6.641H26.595V37.406L97.78 6.581l71.393 30.827v105.045h-32.031v6.641h37.886V33.442L97.777 0z"/></g></g></g></svg>