<?xml version="1.0" encoding="utf-8"?>
<!-- Generator: Adobe Illustrator 25.4.1, SVG Export Plug-In . SVG Version: 6.00 Build 0)  -->
<svg version="1.1" id="Layer_1" xmlns="http://www.w3.org/2000/svg" xmlns:xlink="http://www.w3.org/1999/xlink" x="0px" y="0px"
	 viewBox="0 0 2141.4 496.4" style="enable-background:new 0 0 2141.4 496.4;" xml:space="preserve">
<style type="text/css">
	.st0{display:none;}
	.st1{display:inline;}
	.st2{fill:#202020;}
	.st3{display:inline;fill:#8A5BA5;}
	.st4{display:inline;fill:#202020;}
	.st5{fill:#FFFFFF;stroke:#000000;stroke-miterlimit:10;}
	.st6{fill:#F4C127;}
	.st7{fill:#171717;}
	.st8{fill:#0E0E0E;}
	.st9{fill:#EC0000;}
	.st10{fill:#DA0303;}
	.st11{fill:#C50404;}
</style>
<g id="Layer_1_00000134251741237534064820000013450358219321937833_" class="st0">
	
		<image style="display:inline;overflow:visible;enable-background:new    ;" width="1020" height="291" xlink:href="47473FA2.png"  transform="matrix(1.8824 0 0 1.8824 148.7586 266.4872)">
	</image>
	<g class="st1">
		<path class="st2" d="M297.1,1329.6c0,0-36-16.4-55.1-35.5s-43.5-43.4-47.9-69.9c-3.3-19.9-5.9-50.9,32.6-56.7
			c0,0,22.3-1.6,35.3-2.3c13.1-0.7,47.4-7.1,66.4-20c0,0,21.5-13.8,29.9-30.5c8.4-16.8,10.5-38,8.7-46.9c-1.9-9.3-7.1-13.3-9.9-11.2
			c-2.8,2.2-4,9.3-9.3,14.6c-5.3,5.3-23.9,23.9-41.3,25.4c-17.4,1.6-51.5-8.4-63.9-14.9c-12.4-6.5-25.6-18.3-35.7-18
			c-9.7,0.3-15.2,5.3-18.9,10.6c-3.7,5.3-7.4,3.4-9,1.6c-1.6-1.9-11.2-15.7-13.7-26.4c-2.5-10.4-6.5-25.8-4-43.8
			c2.5-18,12.4-35.4,12.4-35.4s5.9-9.9-1.2-10.5s-17.9,4.6-17.9,4.6l-19.1,9.2c-9.2,5.4-17.4,9.8-27.4,18c-9.7,7.9-16.8,20.1-18,26
			c-4.2,20,12.2,49.8,24.3,62.5s25,14.3,30.3,17.7c5.3,3.4,12.4,5,14.3,7.1c1.9,2.2-0.9,3.1-3.1,3.1s-14.3-3.7-14.3-3.7
			s6.7,5.7,10,8.4c3.7,3.1,9.9,4.5,11,5.7c1.6,2,1.1,3.2-4.2,3.2c-5.3,0-16.4-6.5-18.3-8.4c-1.9-1.9-0.2,1.6-0.2,1.6s7,6.4,11.3,8
			s10,3.7,10.8,4.7c1,1.3,0.6,4.1-3.9,3.8s-16.2-3.5-20.4-7.4s-2.4-0.5-2.4-0.5s3,3.2,6.5,5.2c3.5,2,6.6,2.3,7.9,4.1
			c1.2,1.9,0.7,4.3-2.9,3.6c-3.6-0.7-12.4-5.6-14-7.8c-1.6-2.2-0.9,0.9,0.5,2.7c1.4,1.8,5.3,3.8,2.9,4.3c-2.4,0.5-5.5,0.1-11.2-4.2
			s-18.6-15.8-24.9-25.1c-5.4-8.1-12.6-19.2-18.3-29.8c-4.7-8.6-7.1-14.3-7.1-14.3s9,65.4,14.1,85.3c5.7,22.4,16.6,47.1,26.7,63
			c9.5,15.1,41.2,51.8,60.1,67s49.7,37.6,82.2,47.8c32.6,10.2,34.5,10.9,38.8,9.3c2.4-0.8,3.5-2.1,3-3.2
			C298.8,1330.6,297.1,1329.6,297.1,1329.6z"/>
	</g>
	<path class="st3" d="M78.3,763.3c0,0,24.8-19.2,38.4-24.9s89.8-24.1,89.8-24.1l117.1-22.3l41-10.1c0,0-4.9,21.4-18.5,34.2
		s-33.4,25.5-61.9,31c-19.3,3.7-16,16.2-22.1,17.6c-19.2,4.2-35.2,52.1-21.1,67c14.1,14.9,5.4,26.3,33.5,42.8
		c28.1,16.5,42.1,38,31,44.2c-11.2,6.2-70.9,19.4-89.9,3.2s-91.6-54.8-99.3-63.6c-8.7-9.9-21.4-28.1-31.7-45.9
		C76.8,799.1,78.3,763.3,78.3,763.3z"/>
	<path class="st4" d="M62.1,345L62.1,345z"/>
</g>
<rect x="-41" y="-77.6" class="st5" width="2230.8" height="685.2"/>
<g id="Layer_3">
	<g id="Layer_2_00000054971698418967369460000011783093945405282955_">
	</g>
	<circle class="st6" cx="249.9" cy="115.9" r="57.7"/>
	<path class="st2" d="M338.9,269.9c-0.3,0.2-0.7,0.3-1,0.5c-1.5,0.7-3,1.4-4.5,2c-24.2,9.9-54.7,10.5-61.5,10.8h-0.1
		c-0.1,0-0.2,0-0.2,0c-0.1,0-0.2,0-0.3,0c-3,0.2-6.4,0.4-10,0.6l0,0c-12,0.8-25.3,1.7-25.3,1.7c-21.8,3.3-30.5,14.7-33.2,27.6
		c-2.1,9.8-0.8,20.5,0.6,29.1c4.5,26.6,28.9,50.9,47.9,69.9c0.5,0.5,1,1,1.4,1.4c2.5,2.4,5.3,4.8,8.2,7c0.5,0.4,1,0.8,1.5,1.2
		c1,0.8,2.1,1.5,3.1,2.3c18.7,13.5,40.8,23.6,40.8,23.6l0.2,0.1c0.4,0.3,1.6,1,1.9,1.8c0.4,1.1-0.6,2.2-2.7,3
		c-0.1,0-0.2,0.1-0.3,0.1c-4.3,1.5-6.2,0.9-38.8-9.3c-20.3-6.4-39.8-17.4-56.2-28.5c-10-6.8-18.9-13.5-26-19.3
		c-18.9-15.2-49.9-51.8-59.5-66.9c-6.4-10.1-13.3-23.8-19.1-38.1c-1.1-2.8-2.2-5.6-3.2-8.4c-0.6-1.7-1.2-3.4-1.7-5
		c-1.3-3.9-2.1-7.8-3.4-11.5c-5-14.8-11.2-79.6-11.2-79.6s2.9,5.5,4.3,8.5c3.8,8.4,12.8,21.7,18.3,29.8c6.3,9.3,19.2,20.8,24.9,25.1
		c5.7,4.3,8.8,4.8,11.2,4.2c2.4-0.5-1.4-2.6-2.9-4.4c-1.4-1.8-2.1-4.9-0.5-2.7c1.6,2.2,10.3,7,14,7.8c3.6,0.7,4.1-1.8,2.9-3.6
		s-4.4-2.2-7.9-4.1c-3.5-2-6.5-5.2-6.5-5.2s-1.8-3.4,2.4,0.5c4.1,3.9,15.8,7.1,20.4,7.4s4.9-2.5,3.9-3.8c-0.7-1-6.5-3.1-10.8-4.7
		s-11.3-8-11.3-8s-1.7-3.4,0.2-1.6c1.9,1.9,13,8.4,18.3,8.4c5.3,0,5.9-1.3,4.2-3.2c-1-1.2-7.2-2.6-10.9-5.7c-3.3-2.8-10-8.4-10-8.4
		s12.1,3.7,14.3,3.7c2.2,0,5-0.9,3.1-3.1c-1.9-2.2-9-3.7-14.3-7.1c-5.3-3.4-18.2-5-30.3-17.7c-12.1-12.7-28.5-42.5-24.2-62.5
		c1.2-5.9,8.4-18.1,18-26c10-8.2,18.2-12.6,27.4-18l19.1-9.2c0,0,10.8-5.2,17.9-4.6c7.1,0.6,1.2,10.6,1.2,10.6s-9.9,17.4-12.4,35.4
		c-2.5,18,1.6,33.3,4,43.8c2.5,10.7,12.1,24.5,13.7,26.4c1.6,1.9,5.2,3.7,8.9-1.6c3.7-5.3,9.3-10.2,18.9-10.6
		c10.1-0.4,23.3,11.5,35.7,18c12.4,6.5,46.6,16.4,63.9,14.9s33.5-9.7,42.1-14.3c0.9-0.5,28.6-16.1,30.2-7.4c0.1,0.6,0.2,1.2,0.2,1.8
		C391.1,219.8,361,258.8,338.9,269.9z"/>
	<path class="st7" d="M338.9,269.9c-0.3,0.2-0.7,0.3-1,0.5c-1.5,0.7-3,1.4-4.5,2c-24.2,9.9-54.7,10.5-61.5,10.8h-0.1
		c-0.1,0-0.2,0-0.2,0c-0.1,0-0.2,0-0.3,0c-3,0.2-6.4,0.4-10,0.6l0,0c-12,0.8-25.3,1.7-25.3,1.7c-21.8,3.3-30.5,14.7-33.2,27.6
		c-2.1,9.8-0.8,20.5,0.6,29.1c4.5,26.6,28.9,50.9,47.9,69.9c0.5,0.5,1,1,1.4,1.4c2.5,2.4,5.3,4.8,8.2,7c0.5,0.4,1,0.8,1.5,1.2
		c1,0.8,2.1,1.5,3.1,2.3c18.7,13.5,40.8,23.6,40.8,23.6l0.2,0.1c0.4,0.3,1.6,1,1.9,1.8c0.4,1.1-0.6,2.2-2.7,3
		c-0.1,0-0.2,0.1-0.3,0.1c-4.3,1.5-6.2,0.9-38.8-9.3c-20.3-6.4-39.8-17.4-56.2-28.5c-10-6.8-18.9-13.5-26-19.3
		c-18.9-15.2-49.9-51.8-59.5-66.9c-6.4-10.1-13.3-23.8-19.1-38.1c-1.1-2.8-2.2-5.6-3.2-8.4c-0.6-1.7-1.2-3.4-1.7-5
		c15.7-5.1,151.5-32,232.8-58.2c6.8-2.2,36-16.3,54.5-24.2C391.1,219.8,361,258.8,338.9,269.9z"/>
	<path class="st8" d="M202.8,313.1c-3.8,8.2-1.2,18.5,0.6,29.1c4.5,26.6,28.9,50.9,47.9,69.9c0.5,0.5,1,1,1.4,1.4
		c2.8,2.7,5.2,4.7,8.2,7c0.5,0.4,1,0.8,1.5,1.2c1,0.8,2.1,1.5,3.1,2.3c21.4,15.3,43.8,21.6,42.9,25.5c-0.2,0.6-1.1,2.3-2.7,3
		c-0.1,0-0.2,0.1-0.3,0.1c-4.3,1.5-6.2,0.9-38.8-9.3c-29.5-9.3-34.2-12.1-56.2-28.5c-6.7-5-15-11.2-26-19.3
		c-18.9-15.2-49.9-51.8-59.5-66.9c-6.4-10.1-13.3-23.8-19.1-38.1c9.9-3.2,18.8-5.6,26.4-7.6c15.8-4,27.9-6.3,41-8.7
		c24.3-4.5,37.7-7,55.3-7.9c12.8-0.7,31.1-0.8,53.2,2.2h0c13,0.5,39.1,1.5,56.2,1.9c-1.5,0.7-3,1.4-4.5,2
		c-24.2,9.9-54.7,10.5-61.5,10.8h-0.1c-0.1,0-0.2,0-0.2,0c-0.1,0-0.2,0-0.3,0c-3,0.2-6.4,0.4-10,0.6l0,0c-12,0.8-25.3,1.7-25.3,1.7
		C214.2,288.8,205.5,300.2,202.8,313.1z"/>
	<path class="st9" d="M593.4,187.3c-0.2,17.6-4.4,57.5-24.2,86.9c-22.2,33-61.3,54.9-80.7,61.5c-27.4,9.2-58.9,5-71.2,3.5l-30.9-4.1
		l-0.2,0l-21.5-2.9c-0.9,0.2-1.6,0.7-2.1,1.5c-2.1,3.3,9.1,7.9,18.2,10.4c6.1,1.7,8.1,3.1,8.8,3.9c0.2,0.2,0,0.6-0.3,0.7
		c-0.6,0-1.6,0.1-2.9,0.1l-32.1-4.4l-13.1-1.8c-5.6,1-3,5.4-2.7,6c0,0,0.1,0.1,0.1,0.1c0.7,0.4,6.5,3.9,17.7,6.6
		c8.2,2,17.3,3.5,21.7,4.1c0.5,0.1,0.5,0.7,0,0.8c-2,0.3-4.9,0.6-8.5,0.8c-0.2,0-0.3,0-0.5,0c0,0-0.1,0-0.1,0l-18.9-2.1h0l-17.5-2
		c-2.2,0.5-3.4,1.7-3.2,4.1c0.4,5,12.4,8.7,12.4,8.7c4.5,2.5,26.9,5,26.9,5s17.8,2.1,11.2,2.5c-0.8,0-1.5,0.1-2.1,0.1c0,0,0,0,0,0
		l-26.3-1.8h-0.1l-14.5-1c-3.5,0.9,0.3,4.8,2.9,7.6c2.9,3.3,19,4.5,19,4.5l24.6,1.6c0.5,0,0.5,0.8,0,0.8h-2.7l-18.2,0.2
		c-3.5,0.9-2.7,4.9,3.8,8.5c3.2,1.8,8.8,2.3,17.3,1.9c0,0,0.1,0,0.1,0c11.3-0.6,27.8-3.1,50.9-6.8c0.5-0.1,0.9-0.2,1.4-0.2
		c29.1-5,51.6-15.8,61.6-21.3c1.5-0.8,2.7-1.5,3.6-2c0.4-0.2,0.8,0.3,0.5,0.6c-6.3,7.4-30,35.1-51.4,53.5c-0.8,0.7-1.6,1.4-2.5,2.1
		c-24.9,21.1-40.9,26.9-49.7,29.3c-2.6,0.7-4.8,1.1-7,1.1c-5.6-0.1-12-2.6-28.5-8.5c-17.3-6.2-37.3-17.8-56.6-31.6
		c-4-2.8-7.9-5.7-11.7-8.6c-2.6-2-5.2-4-7.8-6.1c-24.8-19.9-42.8-52-43.6-70.2c-0.2-4,0-7.9,1.1-11.4c0.7-2.5,1.9-4.9,3.6-7.1
		c2.2-2.8,5.4-5.2,9.8-7.3l0,0c7-3.3,17.3-5.7,32.1-6.7l16.5-0.6h0.1l6.2-0.2c0.1,0,0.3,0,0.4,0c33.1-1.9,54.7-11.8,71.4-28.5
		c0,0,0.1-0.1,0.2-0.2c0,0,0,0,0.1-0.1c2.6-2.6,5-5.3,7.4-8.2c4.9-6.1,9.5-12.9,13.9-20.3c14.7-24.8,17.8-43.5,15.4-56.8
		c-0.3-1.8-0.7-3.5-1.2-5.1c0,0,0,0,0-0.1c-1.2-3.9-3-7.3-5.1-10.1c-9.1-12.4-32.1-9.1-42.1,1.4c-12.2,12.6-22.9,20.4-39.5,21.2
		c-14.6,0.7-22.9-7.3-24.7-9.2c-0.2-0.2-0.1-0.5,0.1-0.6c1.7-0.8,7.5-3.4,12.8-5.1c6.2-2.1,16.6-10.3,32.7-32.7
		c8.3-11.5,23.3-39.4,47-56.8c22.1-16.3,52.6-22.4,72-24.2c18.2-1.7,36.9,3.4,52.5,10.6c14.8,6.8,26.8,15.4,33.1,21.7
		c8.5,8.5,19,24.9,26.3,45.3C590.1,154,593.6,170.4,593.4,187.3z"/>
	<path class="st10" d="M593.4,187.3c-0.2,17.6-4.4,57.5-24.2,86.9c-22.2,33-61.3,54.9-80.7,61.5c-27.4,9.2-58.9,5-71.2,3.5
		l-30.9-4.1l-0.2,0l-21.5-2.9c-0.9,0.2-1.6,0.7-2.1,1.5c-2.1,3.3,9.1,7.9,18.2,10.4c6.1,1.7,8.1,3.1,8.8,3.9c0.2,0.2,0,0.6-0.3,0.7
		c-0.6,0-1.6,0.1-2.9,0.1l-32.1-4.4l-13.1-1.8c-5.6,1-3,5.4-2.7,6c0,0,0.1,0.1,0.1,0.1c0.7,0.4,6.5,3.9,17.7,6.6
		c8.2,2,17.3,3.5,21.7,4.1c0.5,0.1,0.5,0.7,0,0.8c-2,0.3-4.9,0.6-8.5,0.8c-0.2,0-0.3,0-0.5,0c0,0-0.1,0-0.1,0l-18.9-2.1h0l-17.5-2
		c-2.2,0.5-3.4,1.7-3.2,4.1c0.4,5,12.4,8.7,12.4,8.7c4.5,2.5,26.9,5,26.9,5s17.8,2.1,11.2,2.5c-0.8,0-1.5,0.1-2.1,0.1c0,0,0,0,0,0
		l-26.3-1.8h-0.1l-14.5-1c-3.5,0.9,0.3,4.8,2.9,7.6c2.9,3.3,19,4.5,19,4.5l24.6,1.6c0.5,0,0.5,0.8,0,0.8h-2.7l-18.2,0.2
		c-3.5,0.9-2.7,4.9,3.8,8.5c3.2,1.8,8.8,2.3,17.3,1.9c0,0,0.1,0,0.1,0c11.3-0.6,27.8-3.1,50.9-6.8c0.5-0.1,0.9-0.2,1.4-0.2
		c29.1-5,51.6-15.8,61.6-21.3c1.5-0.8,2.7-1.5,3.6-2c0.4-0.2,0.8,0.3,0.5,0.6c-6.3,7.4-30,35.1-51.4,53.5c-0.8,0.7-1.6,1.4-2.5,2.1
		c-24.9,21.1-40.9,26.9-49.7,29.3c-2.6,0.7-4.8,1.1-7,1.1c-5.6-0.1-12-2.6-28.5-8.5c-17.3-6.2-37.3-17.8-56.6-31.6
		c-4-2.8-7.9-5.7-11.7-8.6c-2.6-2-5.2-4-7.8-6.1c-24.8-19.9-42.8-52-43.6-70.2c-0.2-4,0-7.9,1.1-11.4c0.7-2.5,1.9-4.9,3.6-7.1
		c2.2-2.8,5.4-5.2,9.8-7.3l0,0c7-3.3,17.3-5.7,32.1-6.7l16.5-0.6h0.1l6.2-0.2c0.1,0,0.3,0,0.4,0c33.1-1.9,54.7-11.8,71.4-28.5
		c0,0,0.1-0.1,0.2-0.2c0,0,0,0,0.1-0.1c2.6-2.6,5-5.3,7.4-8.2c4.9-6.1,9.5-12.9,13.9-20.3c14.7-24.8,17.8-43.5,15.4-56.8
		c-0.3-1.8-0.7-3.5-1.2-5.1c18.5-9,43.7-23.3,53.9-36.7c10.8-14.2,32.5-46.6,51.7-69c14.8,6.8,26.8,15.4,33.1,21.7
		c8.5,8.5,19,24.9,26.3,45.3C590.1,154,593.6,170.4,593.4,187.3z"/>
	<path class="st11" d="M593.4,187.3c-0.2,17.6-4.4,57.5-24.2,86.9c-22.2,33-61.3,54.9-80.7,61.5c-27.4,9.2-58.9,5-71.2,3.5
		l-30.9-4.1l-0.2,0l-21.5-2.9c-0.9,0.2-1.6,0.7-2.1,1.5c-2.1,3.3,9.1,7.9,18.2,10.4c6.1,1.7,8.1,3.1,8.8,3.9c0.2,0.2,0,0.6-0.3,0.7
		c-0.6,0-1.6,0.1-2.9,0.1l-32.1-4.4l-13.1-1.8c-5.6,1-3,5.4-2.7,6c0,0,0.1,0.1,0.1,0.1c0.7,0.4,6.5,3.9,17.7,6.6
		c8.2,2,17.3,3.5,21.7,4.1c0.5,0.1,0.5,0.7,0,0.8c-2,0.3-4.9,0.6-8.5,0.8c-0.2,0-0.3,0-0.5,0c0,0-0.1,0-0.1,0l-18.9-2.1h0l-17.5-2
		c-2.2,0.5-3.4,1.7-3.2,4.1c0.4,5,12.4,8.7,12.4,8.7c4.5,2.5,26.9,5,26.9,5s17.8,2.1,11.2,2.5c-0.8,0-1.5,0.1-2.1,0.1c0,0,0,0,0,0
		l-26.3-1.8h-0.1l-14.5-1c-3.5,0.9,0.3,4.8,2.9,7.6c2.9,3.3,19,4.5,19,4.5l24.6,1.6c0.5,0,0.5,0.8,0,0.8h-2.7l-18.2,0.2
		c-3.5,0.9-2.7,4.9,3.8,8.5c3.2,1.8,8.8,2.3,17.3,1.9c0,0,0.1,0,0.1,0c11.3-0.6,27.8-3.1,50.9-6.8c0.5-0.1,0.9-0.2,1.4-0.2
		c29.1-5,51.6-15.8,61.6-21.3c1.5-0.8,2.7-1.5,3.6-2c0.4-0.2,0.8,0.3,0.5,0.6c-6.3,7.4-30,35.1-51.4,53.5c-0.8,0.7-1.6,1.4-2.5,2.1
		c-24.9,21.1-40.9,26.9-49.7,29.3c-2.6,0.7-4.8,1.1-7,1.1c-5.6-0.1-12-2.6-28.5-8.5c-17.3-6.2-37.3-17.8-56.6-31.6
		c-4-2.8-7.9-5.7-11.7-8.6c-2.6-2-5.2-4-7.8-6.1c-24.8-19.9-42.8-52-43.6-70.2c-0.2-4,0-7.9,1.1-11.4c0.7-2.5,1.9-4.9,3.6-7.1
		c2.2-2.8,5.4-5.2,9.8-7.3l0,0c7-3.3,17.3-5.7,32.1-6.7l16.5-0.6h0.1l6.2-0.2c0.1,0,0.3,0,0.4,0c33.1-1.9,54.7-11.8,71.4-28.5
		c0,0,0.1-0.1,0.2-0.2c39-10.4,79.5-21.8,88.5-26.8c13.6-7.4,22.9-14.3,30.5-21c14.1-12.5,58.3-57.7,81.5-81.4
		C590.1,154,593.6,170.4,593.4,187.3z"/>
	<g>
		<path d="M798.3,209c-3-7.4-7.1-14-12.4-19.8s-11.5-10.4-18.9-14c-7.3-3.6-15.3-5.4-24-5.4h-76.5v177.5h48.8v-54.5h29
			c8.7,0,16.6-1.7,23.9-5.1c7.2-3.4,13.4-8,18.5-13.8c5.1-5.8,9-12.3,11.9-19.8c2.8-7.4,4.2-15,4.2-22.9
			C802.8,223.8,801.3,216.4,798.3,209z M749.4,246.2c-2.6,2.8-5.4,4.1-8.4,4.1h-25.8v-38h24.5c3,0,6,1.3,9,4c3,2.7,4.5,7.7,4.5,15
			C753.3,238.5,752,243.5,749.4,246.2z"/>
		<path d="M933.6,304.8v-135h-48.8v177.5h129.2v-42.5H933.6z"/>
		<path d="M1184.1,169.8h-44.5l-61.8,177.5h46.5l37.5-124.2l35.5,124.2h48.3L1184.1,169.8z"/>
		<path d="M1432.1,169.8v90.2l-71.2-90.2h-38v177.5h48.8v-87.2l70.5,87.2h38.8V169.8H1432.1z"/>
		<path d="M1664.3,169.8h-44.5l-61.8,177.5h46.1l37.8-125.2l35.8,125.2h48.1L1664.3,169.8z"/>
		<path d="M1850.3,169.8v90.2c0,8.5-0.2,15.7-0.8,21.6c-0.5,5.9-1.6,10.8-3.2,14.5c-1.7,3.8-4.1,6.5-7.2,8.1
			c-3.2,1.7-7.3,2.5-12.5,2.5c-3.5,0-6.9-0.3-10.1-1c-3.2-0.7-6.1-1.4-8.6-2.2c-2.5-0.8-4.6-1.7-6.2-2.5c-1.7-0.8-2.8-1.4-3.2-1.8
			l-10.2,39.8c10.7,7.3,23.5,11,38.5,11c16.2,0,29-2.2,38.6-6.5c9.6-4.3,16.9-10.4,21.9-18.2c5-7.8,8.2-17.3,9.8-28.4
			c1.5-11.1,2.2-23.4,2.2-36.9v-90.2H1850.3z"/>
		<path d="M1990.1,169.8v177.5h48.8V169.8H1990.1z"/>
	</g>
</g>
</svg>
