<?xml version="1.0" standalone="no"?>
<!DOCTYPE svg PUBLIC "-//W3C//DTD SVG 20010904//EN"
 "http://www.w3.org/TR/2001/REC-SVG-20010904/DTD/svg10.dtd">
<svg version="1.0" xmlns="http://www.w3.org/2000/svg"
 width="100.000000pt" height="100.000000pt" viewBox="0 0 100.000000 100.000000"
 preserveAspectRatio="xMidYMid meet">

<g transform="translate(0.000000,100.000000) scale(0.100000,-0.100000)"
fill="#000000" stroke="none">
<path d="M647 859 c-25 -17 -71 -63 -102 -104 -30 -40 -67 -82 -82 -94 l-28
-20 35 -1 c22 0 50 10 72 25 46 31 82 32 102 3 34 -48 7 -137 -58 -201 -46
-44 -90 -65 -164 -79 -81 -14 -106 -28 -110 -61 -8 -71 98 -195 215 -249 86
-41 106 -35 210 65 46 44 81 82 79 84 -3 3 -31 -5 -63 -17 -66 -25 -213 -40
-213 -21 0 6 -6 11 -14 11 -7 0 -19 7 -26 15 -10 12 -9 15 6 16 17 0 16 1 -2
9 -33 13 -39 30 -12 31 13 0 17 3 11 6 -30 12 -10 24 30 19 23 -3 36 -3 30 0
-21 9 -16 37 5 29 9 -5 58 -10 108 -13 101 -5 140 7 220 66 86 63 118 251 62
372 -28 63 -93 124 -140 134 -72 14 -123 7 -171 -25z"/>
<path d="M149 841 c-90 -56 -102 -95 -58 -182 17 -33 71 -89 87 -89 4 0 12
-11 19 -25 14 -31 -5 -55 -42 -55 -26 0 -84 63 -106 115 l-13 30 -4 -33 c-11
-103 73 -287 182 -397 75 -76 202 -150 246 -143 18 2 12 10 -39 46 -95 66
-157 167 -149 242 5 49 38 68 136 79 127 14 193 67 208 169 10 65 -7 73 -54
23 -54 -57 -95 -58 -204 -6 -65 31 -98 36 -98 14 0 -24 -23 -4 -40 34 -24 51
-25 105 -5 154 8 19 15 39 15 44 0 18 -37 9 -81 -20z"/>
</g>
</svg>
